<?xml version="1.0" encoding="UTF-8" standalone="no"?>
<!-- Created with Inkscape (http://www.inkscape.org/) -->

<svg
   xmlns:dc="http://purl.org/dc/elements/1.1/"
   xmlns:cc="http://creativecommons.org/ns#"
   xmlns:rdf="http://www.w3.org/1999/02/22-rdf-syntax-ns#"
   xmlns:svg="http://www.w3.org/2000/svg"
   xmlns="http://www.w3.org/2000/svg"
   xmlns:sodipodi="http://sodipodi.sourceforge.net/DTD/sodipodi-0.dtd"
   xmlns:inkscape="http://www.inkscape.org/namespaces/inkscape"
   width="210mm"
   height="297mm"
   viewBox="0 0 210 297"
   version="1.1"
   id="svg8"
   inkscape:version="0.92.3 (2405546, 2018-03-11)"
   sodipodi:docname="skyDirections.svg">
  <defs
     id="defs2" />
  <sodipodi:namedview
     id="base"
     pagecolor="#ffffff"
     bordercolor="#666666"
     borderopacity="1.0"
     inkscape:pageopacity="0.0"
     inkscape:pageshadow="2"
     inkscape:zoom="2.1082031"
     inkscape:cx="312.13653"
     inkscape:cy="998.38061"
     inkscape:document-units="mm"
     inkscape:current-layer="layer1"
     showgrid="false"
     inkscape:window-width="1920"
     inkscape:window-height="974"
     inkscape:window-x="-11"
     inkscape:window-y="-11"
     inkscape:window-maximized="1"
     inkscape:snap-intersection-paths="true"
     inkscape:snap-smooth-nodes="true"
     inkscape:object-paths="true" />
  <metadata
     id="metadata5">
    <rdf:RDF>
      <cc:Work
         rdf:about="">
        <dc:format>image/svg+xml</dc:format>
        <dc:type
           rdf:resource="http://purl.org/dc/dcmitype/StillImage" />
        <dc:title />
      </cc:Work>
    </rdf:RDF>
  </metadata>
  <g
     inkscape:label="Taso 1"
     inkscape:groupmode="layer"
     id="layer1">
    <path
       style="fill:#cccccc;fill-opacity:1;stroke:#000000;stroke-width:1.88976383;stroke-linecap:round;stroke-linejoin:round;stroke-miterlimit:4;stroke-dasharray:none;stroke-dashoffset:0"
       d="M 236.93164 79.451172 A 85.143595 85.143595 0 0 0 176.76172 104.42578 L 211.79102 139.45508 A 35.57532 35.57532 0 0 1 236.93164 129.01953 A 35.57532 35.57532 0 0 1 262.07227 139.45508 L 297.10156 104.42578 A 85.143595 85.143595 0 0 0 236.93164 79.451172 z "
       transform="scale(0.26458333)"
       id="path4518" />
    <rect
       style="fill:none;fill-opacity:1;stroke:#000000;stroke-width:0.5;stroke-linecap:round;stroke-linejoin:round;stroke-miterlimit:4;stroke-dasharray:none;stroke-dashoffset:0"
       id="rect4522"
       width="45.682663"
       height="45.682663"
       x="39.846828"
       y="20.707737" />
    <path
       style="fill:none;stroke:#000000;stroke-width:0.26458332px;stroke-linecap:butt;stroke-linejoin:miter;stroke-opacity:1"
       d="M 39.846829,20.707737 85.529493,66.390395"
       id="path4524"
       inkscape:connector-curvature="0" />
    <path
       style="fill:none;stroke:#000000;stroke-width:0.26458332px;stroke-linecap:butt;stroke-linejoin:miter;stroke-opacity:1"
       d="M 85.529493,20.707737 39.846829,66.390395"
       id="path4526"
       inkscape:connector-curvature="0" />
    <path
       inkscape:connector-curvature="0"
       style="fill:#cccccc;fill-opacity:1;stroke:#000000;stroke-width:0.5;stroke-linecap:round;stroke-linejoin:round;stroke-miterlimit:4;stroke-dasharray:none;stroke-dashoffset:0"
       d="M 62.688268,66.076997 A 22.527576,22.527576 0 0 1 46.76831,59.469132 l 9.268169,-9.268169 a 9.4126367,9.4126367 0 0 0 6.651789,2.761073 9.4126367,9.4126367 0 0 0 6.651791,-2.761073 l 9.268166,9.268169 a 22.527576,22.527576 0 0 1 -15.919957,6.607865 z"
       id="path4518-1" />
    <path
       inkscape:connector-curvature="0"
       style="fill:#cccccc;fill-opacity:1;stroke:#000000;stroke-width:0.5;stroke-linecap:round;stroke-linejoin:round;stroke-miterlimit:4;stroke-dasharray:none;stroke-dashoffset:0"
       d="M 85.215988,43.549278 A 22.527576,22.527576 0 0 0 78.608123,27.62932 l -9.268169,9.268169 a 9.4126367,9.4126367 0 0 1 2.761073,6.651789 9.4126367,9.4126367 0 0 1 -2.761073,6.651791 l 9.268169,9.268166 a 22.527576,22.527576 0 0 0 6.607865,-15.919957 z"
       id="path4518-4" />
    <path
       inkscape:connector-curvature="0"
       style="fill:#cccccc;fill-opacity:1;stroke:#000000;stroke-width:0.5;stroke-linecap:round;stroke-linejoin:round;stroke-miterlimit:4;stroke-dasharray:none;stroke-dashoffset:0"
       d="m 40.160445,43.549174 a 22.527576,22.527576 0 0 0 6.607865,15.919958 l 9.268169,-9.268169 a 9.4126367,9.4126367 0 0 1 -2.761073,-6.651789 9.4126367,9.4126367 0 0 1 2.761073,-6.651791 L 46.76831,27.629216 a 22.527576,22.527576 0 0 0 -6.607865,15.919958 z"
       id="path4518-4-5" />
    <circle
       style="fill:#ffff00;fill-opacity:1;stroke:#000000;stroke-width:0.49999997;stroke-linecap:round;stroke-linejoin:round;stroke-miterlimit:4;stroke-dasharray:none;stroke-dashoffset:0"
       id="path884"
       cx="62.68816"
       cy="43.549065"
       r="9.4128666" />
  </g>
</svg>
